<svg width="40" height="40" viewBox="0 0 40 40" fill="none" xmlns="http://www.w3.org/2000/svg">
  <rect width="40" height="40" rx="10" fill="url(#paint0_linear)"/>
  <path d="M20 10V30" stroke="white" stroke-width="2.5" stroke-linecap="round"/>
  <path d="M12 15C12 15 14 13 16 13C18 13 20 15 20 15C20 15 22 17 24 17C26 17 28 15 28 15" stroke="white" stroke-width="2.5" stroke-linecap="round"/>
  <path d="M12 25C12 25 14 23 16 23C18 23 20 25 20 25C20 25 22 27 24 27C26 27 28 25 28 25" stroke="white" stroke-width="2.5" stroke-linecap="round"/>
  <circle cx="12" cy="15" r="2" fill="white"/>
  <circle cx="28" cy="15" r="2" fill="white"/>
  <circle cx="12" cy="25" r="2" fill="white"/>
  <circle cx="28" cy="25" r="2" fill="white"/>
  <defs>
    <linearGradient id="paint0_linear" x1="0" y1="0" x2="40" y2="40" gradientUnits="userSpaceOnUse">
      <stop stop-color="#2563EB"/>
      <stop offset="1" stop-color="#7C3AED"/>
    </linearGradient>
  </defs>
</svg>
